<?xml version="1.0" standalone="no"?>
<!DOCTYPE svg PUBLIC "-//W3C//DTD SVG 20010904//EN"
 "http://www.w3.org/TR/2001/REC-SVG-20010904/DTD/svg10.dtd">
<svg version="1.0" xmlns="http://www.w3.org/2000/svg"
 width="700.000000pt" height="700.000000pt" viewBox="0 0 700.000000 700.000000"
 preserveAspectRatio="xMidYMid meet">
<metadata>
Created by potrace 1.14, written by Peter Selinger 2001-2017
</metadata>
<g transform="translate(0.000000,700.000000) scale(0.100000,-0.100000)"
fill="#000000" stroke="none">
<path d="M3609 6382 c-14 -15 -153 -151 -308 -302 l-282 -275 302 -305 c165
-168 536 -542 824 -832 l522 -526 314 314 314 314 -820 820 c-451 451 -824
820 -830 819 -5 0 -22 -12 -36 -27z"/>
<path d="M2411 5182 c-111 -111 -201 -204 -201 -209 0 -4 855 -863 1899 -1907
l1900 -1900 200 200 c110 109 201 203 201 208 0 5 -855 864 -1899 1909 l-1900
1899 -200 -200z"/>
<path d="M1505 4283 c-149 -152 -281 -286 -293 -297 -13 -12 -28 -28 -32 -37
-7 -12 174 -198 813 -837 l822 -822 313 313 313 313 -128 128 c-282 282 -1525
1511 -1531 1514 -4 1 -129 -122 -277 -275z"/>
<path d="M1169 1442 c-3 -48 -4 -548 -2 -557 3 -7 556 -10 1746 -9 958 1 1745
2 1748 3 3 0 6 131 6 290 l0 290 -1749 0 c-1639 0 -1748 -1 -1749 -17z"/>
</g>
</svg>
