<svg xmlns="http://www.w3.org/2000/svg" version="1.0" preserveAspectRatio="xMidYMid meet" viewBox="535.48 609.62 465.52 317.68">
<g transform="translate(0.000000,1536.000000) scale(0.100000,-0.100000)" fill="#40101b" stroke="none">
<path d="M5558 9262 l-198 -2 0 -43 c-6 -558 -7 -3096 -2 -3104 6 -9 69 -13 236 -13 125 -1 230 0 232 3 2 2 4 258 4 569 l1 566 919 918 920 919 48 6 c26 3 346 6 712 8 l665 2 -26 -28 c-41 -43 -59 -88 -66 -158 -5 -56 -3 -71 21 -120 32 -64 96 -119 160 -136 86 -23 198 8 266 75 60 58 82 110 88 206 6 118 -8 161 -72 228 -43 44 -65 59 -122 77 l-69 23 -1055 1 -1056 1 -464 -467 c-256 -258 -556 -562 -668 -677 l-202 -208 0 676 c0 372 -3 676 -7 677 -41 3 -96 4 -265 1z m3784 -264 c5 -7 7 -35 5 -62 -5 -62 -47 -106 -101 -106 -93 0 -94 123 -1 178 24 15 85 8 97 -10z"/>
<path d="M8030 7500 l0 -1398 58 -4 c31 -2 477 -2 990 1 l932 4 -2 234 -3 234 -753 -1 -753 0 1 1152 c0 634 1 1158 0 1163 0 6 -86 11 -235 11 l-235 2 0 -1398z"/>
<path d="M8746 8592 c-3 -5 -4 -408 -3 -898 l2 -889 88 -3 87 -3 0 901 0 900 -84 0 c-47 0 -87 -4 -90 -8z"/>
<path d="M7331 8135 l-444 -444 44 -49 c24 -27 226 -231 448 -453 l405 -404 6 55 c11 94 6 1733 -5 1737 -6 2 -210 -197 -454 -442z"/>
<path d="M6397 7213 l-168 -167 253 -254 c139 -141 354 -356 476 -480 l224 -225 66 7 c37 3 174 6 305 6 l237 0 0 31 c0 28 -37 69 -329 363 -181 182 -452 456 -602 609 -150 152 -277 277 -283 277 -6 0 -87 -75 -179 -167z"/>
</g>
</svg>